<?xml version="1.0" standalone="no"?>
<!DOCTYPE svg PUBLIC "-//W3C//DTD SVG 20010904//EN"
 "http://www.w3.org/TR/2001/REC-SVG-20010904/DTD/svg10.dtd">
<svg version="1.0" xmlns="http://www.w3.org/2000/svg"
 width="600.000000pt" height="600.000000pt" viewBox="0 0 600.000000 600.000000"
 preserveAspectRatio="xMidYMid meet">

<g transform="translate(0.000000,600.000000) scale(0.100000,-0.100000)"
fill="#000000" stroke="none">
<path d="M2813 4115 c-353 -82 -628 -339 -726 -680 -38 -131 -50 -226 -43
-340 14 -233 153 -555 240 -555 62 0 72 61 22 135 -40 61 -90 172 -112 251 -9
33 -18 115 -21 184 -7 168 16 282 86 424 131 267 383 445 680 478 220 25 456
-41 630 -178 205 -160 331 -420 331 -681 0 -60 4 -77 20 -93 26 -26 65 -25 91
1 20 20 21 28 14 127 -42 632 -610 1066 -1212 927z"/>
<path d="M2537 3533 c-4 -3 -7 -118 -7 -255 l0 -249 23 3 22 3 3 233 2 232
463 -2 462 -3 3 -72 c2 -40 6 -73 10 -73 4 0 15 7 25 14 13 10 17 28 17 79 0
36 -3 72 -6 81 -5 14 -60 16 -508 16 -277 0 -506 -3 -509 -7z"/>
<path d="M3210 3470 c-8 -5 -10 -10 -3 -10 6 0 9 -9 6 -21 -4 -16 -8 -17 -14
-7 -5 7 -9 9 -9 3 0 -5 5 -17 10 -25 5 -8 10 -10 10 -5 0 6 11 10 25 10 14 0
25 -4 25 -10 0 -5 5 -2 11 8 6 10 8 21 5 24 -3 4 -6 0 -6 -8 0 -11 -2 -11 -10
1 -6 10 -10 11 -10 3 0 -7 -7 -13 -15 -13 -8 0 -15 6 -15 14 0 16 27 29 41 20
5 -3 9 0 9 5 0 6 -4 11 -9 11 -5 0 -15 2 -23 5 -7 3 -20 0 -28 -5z"/>
<path d="M3119 3403 c-12 -16 -12 -17 1 -7 8 6 22 14 30 17 13 5 12 6 -1 6 -9
1 -23 -7 -30 -16z"/>
<path d="M2987 3392 c1 -8 3 -16 3 -18 0 -2 7 -4 15 -4 8 0 15 5 15 10 0 6 -6
10 -14 10 -8 0 -16 3 -19 8 -2 4 -2 1 0 -6z"/>
<path d="M3296 3396 c3 -9 11 -16 16 -16 13 0 5 23 -10 28 -7 2 -10 -2 -6 -12z"/>
<path d="M3223 3388 c1 -7 10 -16 20 -20 23 -10 22 -39 -3 -45 -19 -5 -28 -23
-12 -23 12 0 42 34 42 46 -1 11 -36 54 -44 54 -3 0 -5 -6 -3 -12z"/>
<path d="M3322 3369 c-18 -17 -32 -39 -31 -48 0 -12 2 -11 9 4 9 23 60 73 60
60 0 -5 -12 -22 -27 -38 -17 -16 -21 -26 -11 -22 9 4 19 1 23 -4 3 -6 11 -9
16 -5 6 4 6 11 -1 19 -9 10 -7 20 5 39 25 38 -2 35 -43 -5z"/>
<path d="M2677 3335 c-15 -31 -27 -60 -27 -65 0 -5 16 -43 35 -84 19 -41 35
-78 35 -81 0 -4 7 -14 16 -23 15 -15 18 -14 33 4 9 11 23 18 31 16 11 -4 9 2
-5 19 -11 13 -13 18 -4 12 11 -9 25 -10 47 -3 32 9 73 40 53 40 -6 0 -10 3
-10 8 1 4 0 10 -1 15 -1 4 -3 10 -4 15 -9 45 -30 101 -37 96 -5 -3 -6 2 -3 10
9 23 -22 20 -46 -4 -11 -11 -21 -19 -22 -19 -8 5 -48 -14 -48 -22 0 -5 -3 -8
-7 -8 -5 1 -10 0 -13 -1 -48 -18 -51 4 -9 76 17 30 27 54 22 54 -5 0 -21 -25
-36 -55z m153 -87 c0 -19 -5 -28 -15 -28 -9 0 -29 -7 -45 -15 -27 -14 -30 -14
-40 4 -15 28 -12 51 5 51 9 0 18 7 21 15 4 8 10 12 15 9 5 -3 17 -1 26 5 22
12 33 -2 33 -41z"/>
<path d="M3276 3375 c4 -8 10 -12 15 -9 11 6 2 24 -11 24 -5 0 -7 -7 -4 -15z"/>
<path d="M3140 3360 c0 -19 -2 -20 -15 -10 -12 10 -12 7 1 -19 21 -43 36 -39
28 7 -8 44 -14 54 -14 22z"/>
<path d="M2939 3353 c-13 -17 -13 -17 6 -3 11 8 22 16 24 17 2 2 0 3 -6 3 -6
0 -17 -8 -24 -17z"/>
<path d="M3202 3350 c0 -14 2 -19 5 -12 2 6 2 18 0 25 -3 6 -5 1 -5 -13z"/>
<path d="M2992 3290 c-18 -29 -15 -38 4 -12 9 13 14 25 12 27 -2 2 -9 -5 -16
-15z"/>
<path d="M3041 3298 c-1 -9 -6 -18 -13 -20 -8 -3 -6 -7 5 -11 21 -8 27 2 16
28 -6 16 -8 16 -8 3z"/>
<path d="M3267 3290 c6 -8 13 -26 16 -40 l4 -25 2 26 c0 15 -7 33 -16 40 -16
12 -17 12 -6 -1z"/>
<path d="M2905 3240 c-3 -5 -1 -10 4 -10 6 0 11 5 11 10 0 6 -2 10 -4 10 -3 0
-8 -4 -11 -10z"/>
<path d="M3525 3229 c-19 -9 -20 -18 -17 -124 l3 -115 -252 0 c-139 0 -250 2
-248 4 2 3 59 24 127 49 119 43 123 44 133 25 10 -18 16 -13 60 53 l49 74 -27
6 c-16 4 -56 7 -91 8 -61 1 -62 0 -51 -20 14 -27 11 -29 -91 -67 -225 -85
-446 -128 -607 -120 -135 7 -184 45 -155 121 l11 30 -24 -23 c-14 -13 -32 -42
-41 -66 -21 -56 -6 -91 56 -121 39 -20 59 -23 175 -23 72 0 158 5 190 11 34 6
215 11 434 12 207 1 382 6 389 10 13 9 18 288 5 286 -5 0 -17 -5 -28 -10z"/>
<path d="M2952 2902 c42 -25 62 -75 48 -117 -6 -19 -21 -42 -33 -50 -20 -14
-14 -15 72 -15 l94 0 -27 26 c-47 47 -26 138 38 164 13 6 -23 9 -99 9 -117 0
-119 0 -93 -17z"/>
<path d="M2903 2693 c82 -2 212 -2 290 0 78 1 12 3 -148 3 -159 0 -223 -2
-142 -3z"/>
<path d="M3662 2539 c-13 -5 -49 -32 -80 -59 -164 -146 -487 -232 -697 -187
-65 15 -72 14 -95 -2 -32 -23 -37 -64 -12 -89 37 -37 249 -53 409 -31 179 25
390 126 516 247 50 49 59 79 30 104 -26 22 -45 26 -71 17z"/>
<path d="M3490 1980 c-43 -10 -70 -43 -70 -85 0 -43 29 -78 98 -118 31 -18 63
-45 71 -59 13 -23 13 -29 -2 -52 -13 -20 -26 -26 -53 -26 -46 0 -70 14 -89 50
-22 43 -35 37 -35 -15 0 -46 7 -54 28 -33 9 9 18 8 37 -2 38 -20 122 -16 154
7 77 58 63 115 -48 187 -50 32 -72 53 -77 72 -19 74 76 89 118 19 27 -47 38
-44 38 10 0 46 -7 54 -27 34 -9 -9 -22 -8 -53 5 -22 9 -44 16 -48 15 -4 -1
-23 -5 -42 -9z"/>
<path d="M3826 1980 c-67 -20 -106 -85 -106 -175 0 -64 17 -110 53 -143 34
-32 100 -46 143 -32 36 12 74 53 74 79 -1 9 -7 2 -15 -16 -16 -38 -42 -53 -88
-53 -63 0 -92 66 -85 192 6 100 26 133 84 133 33 0 42 -5 62 -35 33 -49 42
-48 42 4 0 47 -7 55 -28 34 -9 -9 -17 -10 -30 -2 -27 17 -74 23 -106 14z"/>
<path d="M4525 1975 c-78 -28 -115 -103 -102 -211 5 -47 42 -105 79 -125 36
-19 120 -16 158 7 53 31 75 77 75 159 0 52 -5 79 -20 105 -38 63 -118 91 -190
65z m77 -6 c32 -17 49 -74 49 -163 1 -149 -58 -217 -120 -142 -19 23 -30 128
-21 203 7 55 14 72 35 90 30 27 30 26 57 12z"/>
<path d="M4897 1976 c-81 -30 -112 -86 -105 -192 3 -52 9 -70 34 -101 52 -64
139 -77 213 -32 45 27 65 73 66 149 0 136 -95 217 -208 176z m75 -7 c32 -17
50 -74 49 -165 0 -95 -18 -148 -56 -166 -22 -10 -28 -8 -49 11 -62 58 -60 262
2 311 29 23 28 23 54 9z"/>
<path d="M1083 1966 c8 -8 27 -45 43 -82 71 -164 112 -249 119 -249 9 0 22 30
85 200 24 67 49 117 63 127 22 17 22 18 -23 17 -40 0 -43 -1 -27 -13 17 -13
16 -19 -19 -112 -20 -55 -39 -103 -44 -107 -4 -4 -15 14 -25 40 -31 83 -83
180 -100 187 -9 3 -32 6 -52 6 -30 0 -33 -2 -20 -14z"/>
<path d="M1443 1969 c15 -9 17 -28 17 -169 0 -143 -2 -159 -17 -163 -10 -3 16
-5 57 -6 55 0 70 2 58 10 -16 9 -18 28 -18 164 0 136 2 155 18 164 13 8 -2 10
-58 10 -56 0 -71 -2 -57 -10z"/>
<path d="M1633 1973 c15 -4 17 -21 17 -168 0 -147 -2 -164 -17 -168 -10 -3 18
-5 62 -5 56 -1 73 2 58 8 -22 9 -22 12 -20 167 l2 158 30 -2 c39 -3 65 -36 65
-82 0 -43 -29 -81 -62 -81 -20 0 -20 -1 -5 -18 9 -10 26 -40 38 -67 32 -74 45
-85 98 -85 25 0 41 4 35 8 -6 4 -25 35 -43 69 -19 38 -42 68 -58 77 -24 13
-25 15 -8 16 11 0 35 9 53 20 27 17 32 26 32 58 0 74 -59 103 -205 101 -49 -1
-82 -3 -72 -6z"/>
<path d="M1960 1935 c0 -56 13 -58 34 -5 13 32 21 40 41 40 l25 0 0 -164 c0
-148 -2 -165 -17 -169 -10 -3 15 -5 56 -6 62 -1 72 1 58 12 -16 11 -17 30 -15
167 l3 155 25 3 c21 2 28 -4 42 -38 22 -53 38 -51 38 5 l0 45 -145 0 -145 0 0
-45z"/>
<path d="M2293 1969 c15 -9 17 -26 17 -130 0 -132 9 -163 56 -194 39 -26 126
-25 154 0 42 38 50 68 50 193 0 113 1 119 23 130 19 9 15 11 -28 11 -43 0 -47
-2 -27 -11 21 -11 22 -17 22 -125 0 -158 -22 -203 -98 -203 -57 0 -67 25 -70
185 -3 132 -2 144 15 148 10 3 -16 5 -57 6 -55 0 -70 -2 -57 -10z"/>
<path d="M2756 1921 c-14 -32 -32 -76 -40 -97 -31 -86 -69 -160 -89 -176 -22
-17 -21 -18 23 -17 40 0 43 1 27 13 -17 13 -17 17 -3 50 l15 36 64 0 c61 0 65
-1 71 -26 12 -45 50 -74 98 -74 30 1 38 3 28 9 -8 5 -46 84 -85 175 -38 91
-72 166 -76 166 -3 0 -18 -26 -33 -59z m23 -111 c12 -30 21 -58 21 -62 0 -5
-22 -8 -50 -8 -27 0 -50 4 -50 9 0 13 50 124 55 120 2 -2 13 -29 24 -59z"/>
<path d="M2993 1969 c15 -9 17 -28 17 -164 0 -136 -2 -155 -17 -164 -13 -7 20
-10 115 -11 l132 0 0 46 c0 54 -19 56 -36 3 -11 -32 -14 -34 -63 -37 l-51 -3
0 165 c0 148 2 165 18 169 9 3 -17 5 -58 6 -55 0 -70 -2 -57 -10z"/>
<path d="M4053 1969 c15 -9 17 -28 17 -164 0 -136 -2 -155 -17 -164 -14 -8 1
-10 57 -10 56 0 71 2 58 10 -15 8 -18 24 -18 84 l0 75 55 0 55 0 0 -75 c0 -60
-3 -76 -17 -84 -13 -8 2 -10 57 -10 41 1 67 3 58 6 -16 4 -18 21 -18 168 0
147 2 164 18 168 9 3 -17 5 -58 6 -55 0 -70 -2 -57 -10 14 -8 17 -24 17 -84
l0 -75 -55 0 -55 0 0 79 c0 67 3 80 18 84 9 3 -17 5 -58 6 -55 0 -70 -2 -57
-10z"/>
<path d="M5167 1972 c18 -12 20 -322 1 -333 -7 -5 43 -9 120 -9 l132 0 0 46
c0 54 -19 56 -36 3 -11 -33 -13 -34 -65 -34 l-54 0 -3 155 c-2 137 -1 156 15
167 14 11 6 13 -53 13 -38 0 -64 -4 -57 -8z"/>
<path d="M2276 1444 c-19 -18 -21 -75 -4 -92 20 -20 76 -15 88 7 17 32 12 69
-12 85 -29 20 -52 20 -72 0z m62 -16 c32 -32 -9 -96 -44 -67 -14 12 -19 60 -7
72 10 11 38 8 51 -5z"/>
<path d="M2487 1453 c-4 -3 -7 -30 -7 -60 0 -40 4 -53 15 -53 9 0 15 9 15 24
0 18 7 26 23 29 l22 4 -22 2 c-34 2 -32 41 2 41 14 0 25 5 25 10 0 11 -63 14
-73 3z"/>
<path d="M2790 1400 c0 -33 4 -60 10 -60 6 0 10 16 10 35 0 19 4 35 8 35 5 0
17 -16 28 -35 29 -54 44 -45 44 25 0 33 -4 60 -10 60 -5 0 -10 -19 -10 -42 l0
-43 -28 42 c-38 60 -52 56 -52 -17z"/>
<path d="M3010 1400 c0 -33 4 -60 10 -60 6 0 10 27 10 60 0 33 -4 60 -10 60
-6 0 -10 -27 -10 -60z"/>
<path d="M3166 1444 c-16 -16 -21 -59 -10 -88 4 -11 19 -16 50 -16 42 0 44 1
44 30 0 25 -4 30 -25 30 -14 0 -25 -4 -25 -10 0 -5 7 -10 15 -10 20 0 19 -16
-1 -24 -25 -10 -45 14 -42 48 3 29 5 31 42 29 33 -2 36 -1 26 12 -16 20 -54
19 -74 -1z"/>
<path d="M3370 1400 l0 -60 43 1 c38 1 39 2 12 8 -39 8 -48 41 -11 41 14 0 26
5 26 10 0 6 -11 10 -25 10 -16 0 -25 6 -25 15 0 10 10 15 31 15 17 0 28 4 24
10 -3 6 -22 10 -41 10 l-34 0 0 -60z"/>
<path d="M3560 1400 c0 -33 4 -60 10 -60 6 0 10 11 10 25 0 15 6 25 15 25 8 0
17 -11 21 -25 3 -14 12 -25 20 -25 10 0 11 6 4 26 -6 14 -7 37 -4 51 8 29 -7
43 -48 43 -27 0 -28 -1 -28 -60z m58 23 c-2 -10 -10 -18 -18 -18 -8 0 -16 8
-18 18 -2 12 3 17 18 17 15 0 20 -5 18 -17z"/>
<path d="M3760 1400 c0 -33 4 -60 10 -60 6 0 10 27 10 60 0 33 -4 60 -10 60
-6 0 -10 -27 -10 -60z"/>
<path d="M3919 1433 c-5 -16 -15 -41 -21 -56 -6 -15 -7 -31 -3 -35 4 -4 10 -1
12 6 5 14 63 17 63 2 0 -5 6 -10 13 -10 11 0 9 13 -6 60 -22 65 -41 77 -58 33z
m34 -45 c-2 -5 -8 -8 -14 -8 -11 0 -12 33 -2 44 8 8 23 -25 16 -36z"/>
</g>
</svg>
